<!DOCTYPE svg PUBLIC "-//W3C//DTD SVG 1.1//EN" "http://www.w3.org/Graphics/SVG/1.1/DTD/svg11.dtd">
<!-- Uploaded to: SVG Repo, www.svgrepo.com, Transformed by: SVG Repo Mixer Tools -->
<svg fill="#ffffff" width="253px" height="253px" viewBox="0 0 24 24" version="1.2" baseProfile="tiny" xmlns="http://www.w3.org/2000/svg">
<g id="SVGRepo_bgCarrier" stroke-width="0"/>
<g id="SVGRepo_tracerCarrier" stroke-linecap="round" stroke-linejoin="round"/>
<g id="SVGRepo_iconCarrier">
<path d="M15 19c-1.342 0-2.685-.511-3.707-1.532-1.266-1.265-3.323-1.264-4.586 0-.391.391-1.023.391-1.414 0s-.391-1.023 0-1.414c2.043-2.043 5.369-2.043 7.414 0 1.265 1.264 3.322 1.263 4.586 0 .391-.391 1.023-.391 1.414 0s.391 1.023 0 1.414c-1.021 1.021-2.364 1.532-3.707 1.532zM15 15c-1.342 0-2.685-.511-3.707-1.532-1.266-1.265-3.323-1.264-4.586 0-.391.391-1.023.391-1.414 0s-.391-1.023 0-1.414c2.043-2.043 5.369-2.043 7.414 0 1.265 1.264 3.322 1.263 4.586 0 .391-.391 1.023-.391 1.414 0s.391 1.023 0 1.414c-1.021 1.021-2.364 1.532-3.707 1.532zM15 11c-1.342 0-2.685-.511-3.707-1.532-1.266-1.265-3.323-1.264-4.586 0-.391.391-1.023.391-1.414 0s-.391-1.023 0-1.414c2.043-2.042 5.369-2.044 7.414 0 1.265 1.264 3.322 1.263 4.586 0 .391-.391 1.023-.391 1.414 0s.391 1.023 0 1.414c-1.021 1.021-2.364 1.532-3.707 1.532z"/>
</g>
</svg>