<!DOCTYPE svg PUBLIC "-//W3C//DTD SVG 1.1//EN" "http://www.w3.org/Graphics/SVG/1.1/DTD/svg11.dtd">
<!-- Uploaded to: SVG Repo, www.svgrepo.com, Transformed by: SVG Repo Mixer Tools -->
<svg fill="#ffffff" width="253px" height="253px" viewBox="0 0 512 512" xmlns="http://www.w3.org/2000/svg">
<g id="SVGRepo_bgCarrier" stroke-width="0"/>
<g id="SVGRepo_tracerCarrier" stroke-linecap="round" stroke-linejoin="round"/>
<g id="SVGRepo_iconCarrier">
<title>ionicons-v5-r</title>
<path d="M265.12,60.12a12,12,0,0,0-18.23,0C215.23,97.15,112,225.17,112,320c0,88.37,55.64,144,144,144s144-55.63,144-144C400,225.17,296.77,97.15,265.12,60.12ZM272,412a12,12,0,0,1-11.34-16,11.89,11.89,0,0,1,11.41-8A60.06,60.06,0,0,0,332,328.07a11.89,11.89,0,0,1,8-11.41A12,12,0,0,1,356,328,84.09,84.09,0,0,1,272,412Z"/>
</g>
</svg>