<!--?xml version="1.0" encoding="utf-8"?-->
<!-- Svg Vector Icons : http://www.onlinewebfonts.com/icon -->

<svg height="253px" width="253px" version="1.1" xmlns="http://www.w3.org/2000/svg" xmlns:xlink="http://www.w3.org/1999/xlink" x="0px" y="0px" viewBox="0 0 256 256" enable-background="new 0 0 256 256" xml:space="preserve">
<metadata> Svg Vector Icons : http://www.onlinewebfonts.com/icon </metadata>
<g><g><path fill="#ffffff" data-title="Layer 0" xs="0" d="M246,245.5c0-18.3-22.4-33.1-49.9-33.1c-1.8,0-3.5,0.1-5.2,0.2h-34.7c-6.2-2-10.8-7.5-11.4-14.2V58.6c0.8-8.4,7.8-15,16.4-15c0,0,0.1,0,0.1,0l0,0H196c27.6,0,50-14.8,50-33.1c0-0.2,0-0.3,0-0.5l0,0l0,0h-99.9H10l0,0c0,0.2,0,0.3,0,0.5c0,18.3,22.4,33.1,49.9,33.1c0.2,0,0.3,0,0.5,0l0,0h33.6l0,0c0,0,0.1,0,0.1,0c9.1,0,16.4,7.4,16.4,16.4c0,0.2,0,0.4,0,0.5h0v135.7h0c0,0.2,0,0.4,0,0.5c0,7.3-4.8,13.6-11.5,15.7h-34c-1.7-0.1-3.5-0.2-5.2-0.2c-27.6,0-49.9,14.9-49.9,33.2c0,0.2,0,0.3,0,0.5l0,0l0,0h99.9h36.2H246l0,0l0,0C246,245.8,246,245.6,246,245.5z"/></g></g>
</svg>
