<!DOCTYPE svg PUBLIC "-//W3C//DTD SVG 1.1//EN" "http://www.w3.org/Graphics/SVG/1.1/DTD/svg11.dtd">

<!-- Uploaded to: SVG Repo, www.svgrepo.com, Transformed by: SVG Repo Mixer Tools -->
<svg height="256px" width="256px" version="1.1" id="Layer_1" xmlns="http://www.w3.org/2000/svg" xmlns:xlink="http://www.w3.org/1999/xlink" viewBox="0 0 512.00 512.00" xml:space="preserve" fill="#FF4600" stroke="#FF4600">

<g id="SVGRepo_bgCarrier" stroke-width="0"/>

<g id="SVGRepo_tracerCarrier" stroke-linecap="round" stroke-linejoin="round" stroke="#CCCCCC" stroke-width="47.104"/>

<g id="SVGRepo_iconCarrier"> <g> <path style="fill:#FF4600FF4600FF4600;" d="M256.034,344.354l-1.156-0.026c-6.391-0.274-12.094-2.869-16.508-6.85l0.009,86.44 c0.053,9.41,7.477,17.117,16.878,17.523c10.063,0.441,18.45-7.636,18.397-17.717v-86.246 C268.79,341.864,262.628,344.354,256.034,344.354"/> <path style="fill:#FF4600FF4600FF460038454F;" d="M281.026,236.776c-6.656,6.7-15.537,10.399-24.991,10.399l-1.351-0.035 c-10.143-0.433-18.997-5.085-25.159-12.12l0.026,83.015c0.079,14.133,11.202,25.688,25.326,26.297l1.156,0.026 c7.089,0,13.745-2.772,18.741-7.804c5.005-5.032,7.742-11.705,7.706-18.759v-82.794 C281.979,235.576,281.573,236.229,281.026,236.776"/> <g> <path style="fill:#FF4600FF4600FF4600;" d="M434.354,366.478l-1.059,0.468c-5.897,2.463-12.164,2.542-17.858,0.812l63.003,134.179 c4.043,8.492,14.036,12.323,22.713,8.695c9.304-3.884,13.462-14.751,9.128-23.852l-62.897-134.012 C444.85,358.807,440.322,363.68,434.354,366.478"/> <path style="fill:#FF4600FF4600FF4600;" d="M392.55,218.59c-3.178,8.898-9.649,16.013-18.202,20.03l-1.245,0.547 c-9.357,3.911-19.35,3.46-27.922-0.282l54.016,115.023c6.073,12.756,21.063,18.485,34.101,13.038l1.059-0.468 c6.409-3.01,11.255-8.351,13.647-15.025c2.401-6.682,2.03-13.886-0.998-20.259l-53.892-114.838 C392.903,217.098,392.815,217.857,392.55,218.59"/> <path style="fill:#FF4600FF4600FF4600;" d="M77.646,366.478l1.059,0.468c5.897,2.463,12.164,2.542,17.858,0.812L33.561,501.938 c-4.043,8.492-14.036,12.323-22.713,8.695c-9.304-3.884-13.462-14.751-9.128-23.852l62.897-134.012 C67.15,358.807,71.678,363.68,77.646,366.478"/> <path style="fill:#FF4600FF4600FF4600;" d="M119.449,218.59c3.178,8.898,9.649,16.013,18.202,20.03l1.245,0.547 c9.357,3.911,19.35,3.46,27.922-0.282l-54.016,115.023c-6.073,12.756-21.063,18.485-34.101,13.038l-1.059-0.468 c-6.409-3.01-11.255-8.351-13.647-15.025c-2.401-6.682-2.03-13.886,0.998-20.259l53.892-114.838 C119.096,217.098,119.185,217.857,119.449,218.59"/> </g> <g> <path style="fill:#FF4600FF4600FF460038454F;" d="M391.241,191.596L334.135,70.623h-77.047l70.374,151.225c8.104,17.02,28.081,24.664,45.647,17.32 l1.236-0.547c8.563-4.017,15.025-11.14,18.202-20.03C395.752,209.684,395.275,200.088,391.241,191.596"/> <path style="fill:#FF4600FF4600FF460038454F;" d="M177.86,70.621l-57.106,120.973c-4.025,8.492-4.502,18.088-1.306,26.995 c3.178,8.898,9.649,16.013,18.211,20.03l1.236,0.547c17.558,7.345,37.535-0.291,45.639-17.32l70.382-151.225H177.86z"/> </g> <path style="fill:#FF4600FF4600FF4600546A79;" d="M257.086,70.621h-2.172l-34.198,73.481l0.009,67.972c0.106,18.856,14.936,34.251,33.96,35.072 l1.351,0.026c9.454,0,18.335-3.69,24.991-10.399c6.682-6.7,10.328-15.59,10.284-24.991v-67.619L257.086,70.621z"/> <path style="fill:#FF4600FF4600FF4600;" d="M300.138,70.621h-88.276V17.664C211.862,7.91,219.771,0,229.526,0h52.948 c9.754,0,17.664,7.91,17.664,17.664V70.621z"/> </g> </g>

</svg>